<svg width="14" height="14" viewBox="0 0 14 14" fill="none" xmlns="http://www.w3.org/2000/svg">
<path d="M3.86071 12.8826L0.333382 13.6666L1.11738 10.1393C0.60107 9.17357 0.331733 8.09508 0.333382 6.99998C0.333382 3.31798 3.31805 0.333313 7.00005 0.333313C10.682 0.333313 13.6667 3.31798 13.6667 6.99998C13.6667 10.682 10.682 13.6666 7.00005 13.6666C5.90495 13.6683 4.82646 13.399 3.86071 12.8826ZM4.05405 11.474L4.48938 11.7073C5.26175 12.1201 6.12431 12.3351 7.00005 12.3333C8.05488 12.3333 9.08603 12.0205 9.96309 11.4345C10.8402 10.8484 11.5237 10.0155 11.9274 9.04096C12.3311 8.06642 12.4367 6.99406 12.2309 5.9595C12.0251 4.92493 11.5172 3.97462 10.7713 3.22874C10.0254 2.48286 9.0751 1.97491 8.04053 1.76912C7.00596 1.56334 5.93361 1.66895 4.95907 2.07262C3.98453 2.47629 3.15158 3.15988 2.56554 4.03694C1.97951 4.914 1.66671 5.94515 1.66671 6.99998C1.66671 7.88931 1.88338 8.74531 2.29338 9.51065L2.52605 9.94598L2.08938 11.9106L4.05405 11.474Z" fill="white"/>
</svg>
