<svg width="16" height="16" viewBox="0 0 16 16" fill="none" xmlns="http://www.w3.org/2000/svg">
<path d="M9.88536 5.17136L6.1147 8.94269C6.05102 9.00419 6.00023 9.07775 5.96529 9.15909C5.93036 9.24043 5.91196 9.32791 5.91119 9.41643C5.91043 9.50495 5.92729 9.59273 5.96081 9.67466C5.99433 9.75659 6.04384 9.83103 6.10643 9.89362C6.16903 9.95622 6.24346 10.0057 6.32539 10.0392C6.40732 10.0728 6.49511 10.0896 6.58363 10.0889C6.67215 10.0881 6.75963 10.0697 6.84096 10.0348C6.9223 9.99982 6.99586 9.94903 7.05736 9.88536L10.8287 6.11469C11.2038 5.73959 11.4145 5.23084 11.4145 4.70036C11.4145 4.16988 11.2038 3.66113 10.8287 3.28603C10.4536 2.91092 9.94484 2.70019 9.41436 2.70019C8.88388 2.70019 8.37513 2.91092 8.00003 3.28603L4.22869 7.05736C3.91275 7.36545 3.66111 7.7332 3.4884 8.13929C3.31569 8.54538 3.22532 8.98173 3.22256 9.42301C3.21979 9.8643 3.30468 10.3017 3.47229 10.71C3.63991 11.1182 3.88691 11.4891 4.19897 11.8011C4.51104 12.1131 4.88195 12.3601 5.2902 12.5276C5.69845 12.6952 6.1359 12.78 6.57719 12.7772C7.01847 12.7743 7.4548 12.6839 7.86087 12.5111C8.26693 12.3384 8.63465 12.0867 8.94269 11.7707L12.714 8.00003L13.6567 8.94269L9.88536 12.714C9.452 13.1474 8.93752 13.4912 8.37131 13.7257C7.80509 13.9602 7.19823 14.0809 6.58536 14.0809C5.9725 14.0809 5.36563 13.9602 4.79941 13.7257C4.2332 13.4912 3.71872 13.1474 3.28536 12.714C2.852 12.2807 2.50824 11.7662 2.2737 11.2C2.03917 10.6338 1.91846 10.0269 1.91846 9.41403C1.91846 8.80116 2.03917 8.19429 2.2737 7.62808C2.50824 7.06186 2.852 6.54739 3.28536 6.11403L7.05736 2.34336C7.68604 1.73617 8.52804 1.40019 9.40203 1.40778C10.276 1.41537 11.1121 1.76594 11.7301 2.38396C12.3481 3.00199 12.6987 3.83803 12.7063 4.71202C12.7139 5.58601 12.3779 6.42802 11.7707 7.05669L8.00003 10.8294C7.81425 11.0151 7.59371 11.1624 7.351 11.2629C7.10829 11.3634 6.84816 11.4151 6.58546 11.4151C6.32276 11.4151 6.06264 11.3633 5.81996 11.2627C5.57727 11.1622 5.35676 11.0148 5.17103 10.829C4.9853 10.6433 4.83797 10.4227 4.73747 10.18C4.63697 9.93729 4.58526 9.67716 4.58529 9.41446C4.58532 9.15176 4.63709 8.89164 4.73765 8.64895C4.83821 8.40627 4.98558 8.18576 5.17136 8.00003L8.94269 4.22869L9.88536 5.17136Z" fill="white"/>
</svg>
